<svg width="27" height="32" viewBox="0 0 27 32" fill="none" xmlns="http://www.w3.org/2000/svg">
<path d="M26.6328 27.666L21.3748 21.4354C21.1375 21.1542 20.8158 20.9979 20.4783 20.9979H19.6186C21.0742 18.7919 21.9391 16.0172 21.9391 12.9987C21.9391 5.81818 17.0292 0 10.9696 0C4.90993 0 0 5.81818 0 12.9987C0 20.1793 4.90993 25.9975 10.9696 25.9975C13.5168 25.9975 15.8584 24.9726 17.72 23.2477V24.2664C17.72 24.6663 17.8519 25.0476 18.0892 25.3288L23.3472 31.5594C23.843 32.1469 24.6446 32.1469 25.135 31.5594L26.6275 29.7908C27.1233 29.2034 27.1233 28.2535 26.6328 27.666ZM10.9696 20.9979C7.24096 20.9979 4.21906 17.4233 4.21906 12.9987C4.21906 8.58041 7.23568 4.99951 10.9696 4.99951C14.6981 4.99951 17.72 8.57416 17.72 12.9987C17.72 17.417 14.7034 20.9979 10.9696 20.9979Z" fill="#ffffff"/>
</svg>
